<svg width="207" height="300" viewBox="0 0 207 300" fill="none" xmlns="http://www.w3.org/2000/svg">
<g clip-path="url(#clip0_2884_1741)">
<path d="M100.918 147.199L52.3457 98.7821C51.6502 98.0888 50.5226 98.0888 49.8272 98.7821L1.2549 147.199C0.559423 147.892 0.559424 149.016 1.2549 149.709L49.8272 198.126C50.5226 198.82 51.6502 198.82 52.3457 198.126L100.918 149.709C101.613 149.016 101.613 147.892 100.918 147.199Z" fill="black"/>
<path d="M204.995 247.8L156.423 199.383C155.727 198.689 154.6 198.689 153.904 199.383L105.332 247.8C104.637 248.493 104.637 249.617 105.332 250.31L153.904 298.727C154.6 299.42 155.727 299.42 156.423 298.727L204.995 250.31C205.691 249.617 205.691 248.493 204.995 247.8Z" fill="black"/>
<path d="M51.1039 210.667H51.0884C28.1101 210.667 9.48242 229.235 9.48242 252.139V252.155C9.48242 275.06 28.1101 293.628 51.0884 293.628H51.1039C74.0823 293.628 92.7099 275.06 92.7099 252.155V252.139C92.7099 229.235 74.0823 210.667 51.1039 210.667Z" fill="black"/>
<path d="M51.1039 0H51.0884C28.1101 0 9.48242 18.5681 9.48242 41.4729V41.4884C9.48242 64.3932 28.1101 82.9613 51.0884 82.9613H51.1039C74.0823 82.9613 92.7099 64.3932 92.7099 41.4884V41.4729C92.7099 18.5681 74.0823 0 51.1039 0Z" fill="black"/>
<path d="M155.147 103.882H155.131C132.153 103.882 113.525 122.45 113.525 145.355V145.37C113.525 168.275 132.153 186.843 155.131 186.843H155.147C178.125 186.843 196.753 168.275 196.753 145.37V145.355C196.753 122.45 178.125 103.882 155.147 103.882Z" fill="black"/>
</g>
<defs>
<clipPath id="clip0_2884_1741">
<rect width="206.25" height="300" fill="white"/>
</clipPath>
</defs>
</svg>
