<svg width="669" height="200" viewBox="0 0 669 200" fill="none" xmlns="http://www.w3.org/2000/svg">
<path d="M164.123 195.423C158.061 192.377 152.912 188.083 148.69 182.541L139.873 196.116H130.779V34.6275C130.779 28.5345 129.58 24.1507 127.195 21.4715C124.805 18.797 120.486 17.2714 114.24 16.8994L110.933 16.6216V11.0795L148.962 0H153.924V80.6075C159.068 71.7411 165.266 64.9559 172.528 60.2473C179.786 55.5386 187.179 53.1843 194.717 53.1843C207.025 53.1843 217.637 56.0472 226.553 61.7729C235.464 67.4986 242.215 75.5316 246.811 85.8718C251.403 96.2167 253.703 108.219 253.703 121.884C253.703 137.766 250.625 151.619 244.469 163.433C238.313 175.252 230.179 184.302 220.078 190.578C209.972 196.855 199.22 199.996 187.83 199.996C178.09 199.996 170.19 198.47 164.128 195.423H164.123ZM157.784 166.757C160.356 173.406 164.4 178.995 169.909 183.515C175.424 188.04 182.405 190.3 190.857 190.3C198.203 190.3 204.729 187.857 210.426 182.96C216.119 178.067 220.668 171.235 224.07 162.463C227.466 153.695 229.167 143.675 229.167 132.407C229.167 120.038 227.513 109.048 224.206 99.4422C220.898 89.8412 216.166 82.4062 210.01 77.142C203.853 71.8777 196.549 69.2455 188.097 69.2455C180.929 69.2455 174.318 71.0019 168.251 74.5098C162.188 78.0178 157.405 82.9148 153.919 89.1914V147.084C153.919 153.549 155.203 160.104 157.779 166.752L157.784 166.757Z" fill="white"/>
<path d="M307.307 184.758C310.521 186.976 315.435 188.732 322.051 190.023V196.116H259.485V190.023C266.279 188.732 271.292 186.976 274.506 184.758C277.72 182.541 279.327 178.665 279.327 173.123V34.6275C279.327 28.9065 278.085 24.6122 275.607 21.7446C273.129 18.8817 268.757 17.2714 262.517 16.8994L259.485 16.6216V11.0795L297.524 0H302.486V173.128C302.486 178.67 304.093 182.545 307.311 184.763L307.307 184.758Z" fill="white"/>
<path d="M421.55 62.0503C429.449 67.9644 435.376 75.9456 439.326 86.0127C443.275 96.0798 445.252 107.202 445.252 119.392H350.163C350.715 138.048 355.307 152.866 363.942 163.852C372.576 174.842 383.966 180.332 398.12 180.332C406.937 180.332 414.747 178.161 421.546 173.824C428.339 169.488 434.313 163.715 439.462 156.511L444.423 159.002C440.563 170.82 433.675 180.61 423.752 188.365C413.829 196.12 402.069 200 388.473 200C376.348 200 365.595 196.859 356.225 190.583C346.855 184.306 339.64 175.812 334.589 165.099C329.534 154.392 327.009 142.757 327.009 130.199C327.009 114.505 329.81 100.793 335.414 89.0639C341.017 77.3394 348.78 68.4259 358.704 62.3329C368.627 56.2399 379.927 53.1934 392.605 53.1934C403.995 53.1934 413.642 56.1504 421.546 62.0598L421.55 62.0503ZM361.463 75.762C355.213 83.9833 351.54 95.1993 350.439 109.419H420.173C419.25 95.1993 416.265 83.9833 411.215 75.762C406.159 67.5453 398.396 63.4347 387.925 63.4347C376.531 63.4347 367.708 67.5453 361.463 75.762Z" fill="white"/>
<path d="M475.022 192.792C465.099 187.994 457.383 181.345 451.868 172.846L473.092 158.164C476.212 167.954 481.038 175.756 487.56 181.571C494.082 187.386 501.386 190.296 509.472 190.296C517.559 190.296 524.905 187.9 530.42 183.092C535.934 178.294 538.595 172.385 538.413 165.364C538.225 153.917 531.521 145.517 518.294 140.159L491.561 129.908C480.902 125.849 472.633 121.041 466.753 115.504C460.869 109.962 457.837 102.485 457.659 93.0672C457.472 80.8812 461.792 71.1861 470.614 63.9818C479.431 56.7776 491.102 53.1802 505.616 53.1802C519.213 53.1802 530.237 55.398 538.689 59.8288C547.136 64.2596 553.297 69.4345 557.158 75.3391L536.763 89.4651C533.821 81.1543 529.501 74.5999 523.809 69.797C518.112 64.9989 511.496 62.5975 503.963 62.5975C495.876 62.5975 489.396 64.5845 484.533 68.5539C479.661 72.528 477.229 77.8347 477.229 84.4833C477.229 90.3974 479.113 95.1061 482.879 98.6093C486.642 102.117 492.203 105.258 499.554 108.027L527.117 118.555C536.67 122.251 544.156 127.097 549.582 133.096C554.998 139.099 557.804 146.901 557.987 156.502C557.987 164.446 555.921 171.739 551.784 178.383C547.652 185.032 541.725 190.296 534.008 194.172C526.292 198.051 517.287 199.987 506.999 199.987C495.604 199.987 484.95 197.585 475.027 192.782L475.022 192.792Z" fill="white"/>
<path d="M585.82 192.792C575.897 187.994 568.18 181.345 562.666 172.846L583.89 158.164C587.01 167.954 591.836 175.756 598.358 181.571C604.879 187.386 612.183 190.296 620.27 190.296C628.356 190.296 635.703 187.9 641.217 183.092C646.732 178.294 649.393 172.385 649.21 165.364C649.027 153.917 642.318 145.517 629.092 140.159L602.359 129.908C591.7 125.849 583.431 121.041 577.551 115.504C571.666 109.962 568.635 102.485 568.457 93.0672C568.274 80.8812 572.589 71.1861 581.411 63.9818C590.229 56.7776 601.899 53.1802 616.414 53.1802C630.01 53.1802 641.035 55.398 649.487 59.8288C657.939 64.2596 664.095 69.4345 667.955 75.3391L647.561 89.4651C644.619 81.1543 640.299 74.5999 634.607 69.797C628.909 64.9989 622.294 62.5975 614.76 62.5975C606.674 62.5975 600.194 64.5845 595.331 68.5539C590.458 72.528 588.027 77.8347 588.027 84.4833C588.027 90.3974 589.91 95.1061 593.677 98.6093C597.444 102.117 603 105.258 610.351 108.027L637.914 118.555C647.467 122.251 654.954 127.097 660.38 133.096C665.796 139.099 668.602 146.901 668.785 156.502C668.785 164.446 666.719 171.739 662.582 178.383C658.449 185.032 652.523 190.296 644.806 194.172C637.09 198.051 628.085 199.987 617.796 199.987C606.402 199.987 595.748 197.585 585.825 192.782L585.82 192.792Z" fill="white"/>
<g clip-path="url(#clip0_2884_1705)">
<path d="M34.4453 51.844L17.8663 35.3181C17.629 35.0815 17.2441 35.0815 17.0067 35.3181L0.427763 51.844C0.190381 52.0807 0.19038 52.4643 0.427763 52.7009L17.0067 69.2269C17.2441 69.4635 17.629 69.4635 17.8663 69.2269L34.4453 52.7009C34.6827 52.4643 34.6827 52.0807 34.4453 51.844Z" fill="white"/>
<path d="M69.9709 86.18L53.392 69.654C53.1546 69.4174 52.7697 69.4174 52.5323 69.654L35.9534 86.18C35.716 86.4166 35.716 86.8002 35.9534 87.0369L52.5323 103.563C52.7697 103.799 53.1546 103.799 53.392 103.563L69.9709 87.0369C70.2083 86.8002 70.2083 86.4166 69.9709 86.18Z" fill="white"/>
<path d="M17.4435 73.5059H17.4382C9.59514 73.5059 3.23706 79.8436 3.23706 87.6616V87.6669C3.23706 95.4849 9.59514 101.823 17.4382 101.823H17.4435C25.2866 101.823 31.6447 95.4849 31.6447 87.6669V87.6616C31.6447 79.8436 25.2866 73.5059 17.4435 73.5059Z" fill="white"/>
<path d="M17.4438 1.6001H17.4385C9.59539 1.6001 3.2373 7.93786 3.2373 15.7559V15.7611C3.2373 23.5792 9.59539 29.9169 17.4385 29.9169H17.4438C25.2869 29.9169 31.6449 23.5792 31.6449 15.7611V15.7559C31.6449 7.93786 25.2869 1.6001 17.4438 1.6001Z" fill="white"/>
<path d="M52.9565 37.0576H52.9512C45.1081 37.0576 38.75 43.3954 38.75 51.2134V51.2187C38.75 59.0367 45.1081 65.3745 52.9512 65.3745H52.9565C60.7996 65.3745 67.1576 59.0367 67.1576 51.2187V51.2134C67.1576 43.3954 60.7996 37.0576 52.9565 37.0576Z" fill="white"/>
</g>
<defs>
<clipPath id="clip0_2884_1705">
<rect width="70.3983" height="102.398" fill="white" transform="translate(0 1.6001)"/>
</clipPath>
</defs>
</svg>
